<svg xmlns="http://www.w3.org/2000/svg" width="32" height="32" viewBox="0 0 256 256">
  <style>
    path {
      fill: #03A9F4; /* Default neutral gray for the icon */
      transition: fill 0.3s ease, transform 0.3s ease; /* Smooth transitions */
    }
    svg:hover path {
      fill:  #0288D1;  /* Light blue color on hover */
      transform: scale(1.1); /* Slight zoom effect on hover */
    }
    svg {
      transition: filter 0.3s ease; /* Smooth glowing effect */
    }
    svg:hover {
      filter: drop-shadow(0 0 8px rgba(3, 169, 244, 0.6)); /* Light blue glowing effect */
    }
  </style>
  <path d="M230.92,212c-15.23-26.33-38.7-45.21-66.09-54.16a72,72,0,1,0-73.66,0C63.78,166.78,40.31,185.66,25.08,212a8,8,0,1,0,13.85,8c18.84-32.56,52.14-52,89.07-52s70.23,19.44,89.07,52a8,8,0,1,0,13.85-8ZM72,96a56,56,0,1,1,56,56A56.06,56.06,0,0,1,72,96Z"></path>
</svg>
